<svg width="24" height="24" viewBox="0 0 24 24" fill="none" xmlns="http://www.w3.org/2000/svg">
<path fill-rule="evenodd" clip-rule="evenodd" d="M2.82775 0.766797C3.09013 0.504362 3.4053 0.300724 3.75235 0.169391C4.09941 0.0380581 4.47043 -0.0179673 4.84078 0.00503165C5.21114 0.0280306 5.57238 0.129528 5.90052 0.302791C6.22867 0.476053 6.51623 0.71712 6.74413 1.01L9.43344 4.46925C9.92778 5.10286 10.1022 5.93007 9.90699 6.70928L9.08627 9.99413C9.04359 10.1646 9.04577 10.3432 9.09259 10.5125C9.13941 10.6819 9.22928 10.8362 9.35345 10.9605L13.0394 14.6454C13.1637 14.7696 13.3181 14.8595 13.4874 14.9063C13.6567 14.9531 13.8353 14.9553 14.0057 14.9126L17.2886 14.0918C17.6736 13.9956 18.0755 13.9883 18.4638 14.0703C18.8521 14.1524 19.2167 14.3217 19.5299 14.5654L22.9888 17.255C24.2318 18.2215 24.347 20.0599 23.2335 21.1719L21.6817 22.7239C20.573 23.8327 18.914 24.3207 17.367 23.7767C13.4097 22.3837 9.81668 20.1175 6.85452 17.1462C3.88306 14.1839 1.6166 10.5904 0.223238 6.63248C-0.320703 5.08526 0.167244 3.42604 1.27592 2.31562L2.82775 0.765197V0.766797Z" fill="white"/>
</svg>
