<svg width="24" height="24" viewBox="0 0 24 24" fill="none" xmlns="http://www.w3.org/2000/svg">
<path d="M21 2H3C2.20461 2.0009 1.44204 2.33642 0.879619 2.93293C0.317195 3.52944 0.000850835 4.33822 0 5.18182V18.8182C0.000850835 19.6618 0.317195 20.4706 0.879619 21.0671C1.44204 21.6636 2.20461 21.9991 3 22H21C21.7954 21.9991 22.558 21.6636 23.1204 21.0671C23.6828 20.4706 23.9991 19.6618 24 18.8182V5.18182C23.9991 4.33822 23.6828 3.52944 23.1204 2.93293C22.558 2.33642 21.7954 2.0009 21 2ZM20.2404 7.26307L12.5261 13.6267C12.3756 13.7507 12.1905 13.8181 12 13.8181C11.8095 13.8181 11.6244 13.7507 11.4739 13.6267L3.75964 7.26307C3.66901 7.19047 3.59288 7.0995 3.53568 6.99543C3.47848 6.89136 3.44135 6.77627 3.42646 6.65685C3.41156 6.53743 3.41918 6.41607 3.44889 6.2998C3.4786 6.18353 3.5298 6.07469 3.59952 5.97959C3.66923 5.88449 3.75607 5.80504 3.85499 5.74585C3.95391 5.68665 4.06293 5.6489 4.17572 5.63478C4.28852 5.62066 4.40283 5.63045 4.51203 5.6636C4.62122 5.69674 4.72311 5.75257 4.81179 5.82784L12 11.7574L19.1882 5.82784C19.368 5.68388 19.5939 5.62073 19.8172 5.65207C20.0405 5.68341 20.2432 5.8067 20.3814 5.9953C20.5197 6.18389 20.5824 6.42262 20.556 6.65986C20.5296 6.89711 20.4162 7.1138 20.2404 7.26307Z" fill="white"/>
</svg>
