<svg width="215" height="67" viewBox="0 0 215 67" fill="none" xmlns="http://www.w3.org/2000/svg">
<path d="M99.6035 38.6719V60H96.791V40.9863H89.1445L88.7637 49.4385C88.6172 52.2705 88.3242 54.3994 87.8848 55.8252C87.4551 57.251 86.8203 58.3008 85.9805 58.9746C85.1406 59.6387 84.0176 59.9805 82.6113 60H81.6885V57.7002L82.2744 57.6709C83.1826 57.6025 83.8809 57.3096 84.3691 56.792C84.8574 56.2646 85.2285 55.4297 85.4824 54.2871C85.7363 53.1445 85.917 51.3867 86.0244 49.0137L86.4639 38.6719H99.6035ZM114.076 60C113.92 59.6875 113.793 59.1309 113.695 58.3301C112.436 59.6387 110.932 60.293 109.184 60.293C107.621 60.293 106.337 59.8535 105.331 58.9746C104.335 58.0859 103.837 56.9629 103.837 55.6055C103.837 53.9551 104.462 52.6758 105.712 51.7676C106.972 50.8496 108.739 50.3906 111.015 50.3906H113.651V49.1455C113.651 48.1982 113.368 47.4463 112.802 46.8896C112.235 46.3232 111.4 46.04 110.297 46.04C109.33 46.04 108.52 46.2842 107.865 46.7725C107.211 47.2607 106.884 47.8516 106.884 48.5449H104.159C104.159 47.7539 104.438 46.9922 104.994 46.2598C105.561 45.5176 106.322 44.9316 107.279 44.502C108.246 44.0723 109.306 43.8574 110.458 43.8574C112.284 43.8574 113.715 44.3164 114.75 45.2344C115.785 46.1426 116.322 47.3975 116.361 48.999V56.2939C116.361 57.749 116.547 58.9062 116.918 59.7656V60H114.076ZM109.579 57.9346C110.429 57.9346 111.234 57.7148 111.996 57.2754C112.758 56.8359 113.31 56.2646 113.651 55.5615V52.3096H111.527C108.207 52.3096 106.547 53.2812 106.547 55.2246C106.547 56.0742 106.83 56.7383 107.396 57.2168C107.963 57.6953 108.69 57.9346 109.579 57.9346ZM126.967 58.0811C127.934 58.0811 128.778 57.7881 129.501 57.2021C130.224 56.6162 130.624 55.8838 130.702 55.0049H133.266C133.217 55.9131 132.904 56.7773 132.328 57.5977C131.752 58.418 130.98 59.0723 130.014 59.5605C129.057 60.0488 128.041 60.293 126.967 60.293C124.809 60.293 123.09 59.5752 121.811 58.1396C120.541 56.6943 119.906 54.7217 119.906 52.2217V51.7676C119.906 50.2246 120.189 48.8525 120.756 47.6514C121.322 46.4502 122.133 45.5176 123.188 44.8535C124.252 44.1895 125.507 43.8574 126.952 43.8574C128.729 43.8574 130.204 44.3896 131.376 45.4541C132.558 46.5186 133.188 47.9004 133.266 49.5996H130.702C130.624 48.5742 130.233 47.7344 129.53 47.0801C128.837 46.416 127.978 46.084 126.952 46.084C125.575 46.084 124.506 46.582 123.744 47.5781C122.992 48.5645 122.616 49.9951 122.616 51.8701V52.3828C122.616 54.209 122.992 55.6152 123.744 56.6016C124.496 57.5879 125.57 58.0811 126.967 58.0811ZM148.09 46.3477H142.772V60H140.062V46.3477H134.848V44.1504H148.09V46.3477ZM149.394 51.9287C149.394 50.376 149.696 48.9795 150.302 47.7393C150.917 46.499 151.767 45.542 152.851 44.8682C153.944 44.1943 155.189 43.8574 156.586 43.8574C158.744 43.8574 160.487 44.6045 161.815 46.0986C163.153 47.5928 163.822 49.5801 163.822 52.0605V52.251C163.822 53.7939 163.524 55.1807 162.929 56.4111C162.343 57.6318 161.498 58.584 160.395 59.2676C159.301 59.9512 158.041 60.293 156.615 60.293C154.467 60.293 152.724 59.5459 151.386 58.0518C150.058 56.5576 149.394 54.5801 149.394 52.1191V51.9287ZM152.118 52.251C152.118 54.0088 152.523 55.4199 153.334 56.4844C154.154 57.5488 155.248 58.0811 156.615 58.0811C157.992 58.0811 159.086 57.5439 159.896 56.4697C160.707 55.3857 161.112 53.8721 161.112 51.9287C161.112 50.1904 160.697 48.7842 159.867 47.71C159.047 46.626 157.953 46.084 156.586 46.084C155.248 46.084 154.169 46.6162 153.349 47.6807C152.528 48.7451 152.118 50.2686 152.118 52.251ZM179.188 60H176.464V54.2578C175.272 54.5703 174.052 54.7266 172.802 54.7266C170.819 54.7266 169.306 54.2188 168.261 53.2031C167.226 52.1875 166.698 50.7422 166.679 48.8672V44.1357H169.389V48.9551C169.438 51.3184 170.575 52.5 172.802 52.5C174.052 52.5 175.272 52.3438 176.464 52.0312V44.1504H179.188V60ZM188.476 53.2471H186.498V60H183.773V44.1504H186.498V50.8594H188.271L193.603 44.1504H196.884L190.614 51.7676L197.411 60H193.969L188.476 53.2471ZM209.525 60C209.369 59.6875 209.242 59.1309 209.145 58.3301C207.885 59.6387 206.381 60.293 204.633 60.293C203.07 60.293 201.786 59.8535 200.78 58.9746C199.784 58.0859 199.286 56.9629 199.286 55.6055C199.286 53.9551 199.911 52.6758 201.161 51.7676C202.421 50.8496 204.188 50.3906 206.464 50.3906H209.101V49.1455C209.101 48.1982 208.817 47.4463 208.251 46.8896C207.685 46.3232 206.85 46.04 205.746 46.04C204.779 46.04 203.969 46.2842 203.314 46.7725C202.66 47.2607 202.333 47.8516 202.333 48.5449H199.608C199.608 47.7539 199.887 46.9922 200.443 46.2598C201.01 45.5176 201.771 44.9316 202.729 44.502C203.695 44.0723 204.755 43.8574 205.907 43.8574C207.733 43.8574 209.164 44.3164 210.199 45.2344C211.234 46.1426 211.771 47.3975 211.811 48.999V56.2939C211.811 57.749 211.996 58.9062 212.367 59.7656V60H209.525ZM205.028 57.9346C205.878 57.9346 206.684 57.7148 207.445 57.2754C208.207 56.8359 208.759 56.2646 209.101 55.5615V52.3096H206.977C203.656 52.3096 201.996 53.2812 201.996 55.2246C201.996 56.0742 202.279 56.7383 202.846 57.2168C203.412 57.6953 204.14 57.9346 205.028 57.9346Z" fill="white"/>
<path d="M7 38.2131C30.0298 47.7919 59.2247 18.4272 70.9434 2.54749C71.9624 8.49176 70.8924 22.1636 58.4604 29.2967C60.6683 29.042 64.8293 30.4176 63.8103 37.9584C61.9421 36.5148 56.7281 34.2389 50.8178 36.6846C43.4299 39.7416 31.7501 49.5001 7 38.2131Z" fill="white"/>
<path d="M30.6921 33.6276C15.203 28.3287 13.5386 9.00133 14.6426 0C23.2023 12.2282 37.2308 22.0787 43.175 25.4755L30.6921 33.6276Z" fill="white"/>
<path d="M64 57.3256V47V57C64 58.6569 62.6569 60 61 60H4C2.34315 60 1 58.6569 1 57V35C1 33.3431 2.34315 32 4 32H20.8145" stroke="white" stroke-width="1.5" stroke-linecap="round"/>
</svg>
