<svg width="659" height="659" fill="none" xmlns="http://www.w3.org/2000/svg"><path d="M626.352 329.5a296.851 296.851 0 00-593.646-5.89 296.85 296.85 0 00287.96 302.611 296.858 296.858 0 00211.327-79.654 296.86 296.86 0 0094.126-205.29l-20.4-.81a276.438 276.438 0 01-476.476 179.595 276.433 276.433 0 017.717-388.919 276.438 276.438 0 01388.977 3.859A276.437 276.437 0 01605.936 329.5h20.416z" fill="url(#paint0_linear)" fill-opacity=".5"/><path d="M659 329.5A329.502 329.502 0 00332.769.016a329.5 329.5 0 10325.972 342.556l-9.148-.363A320.345 320.345 0 11332.678 9.17a320.344 320.344 0 01224.461 94.938A320.343 320.343 0 01649.846 329.5H659z" fill="url(#paint1_linear)" fill-opacity=".25"/><path d="M558.639 329.5c0 126.55-102.589 229.138-229.139 229.138-126.55 0-229.138-102.588-229.138-229.138 0-126.55 102.588-229.139 229.138-229.139 126.55 0 229.139 102.589 229.139 229.139zm-353.86 0c0 68.882 55.84 124.721 124.721 124.721 68.882 0 124.721-55.839 124.721-124.721S398.382 204.779 329.5 204.779c-68.881 0-124.721 55.839-124.721 124.721z" fill="url(#paint2_linear)" fill-opacity=".7"/><defs><linearGradient id="paint0_linear" x1="146.858" y1="32.648" x2="748.848" y2="363.859" gradientUnits="userSpaceOnUse"><stop stop-color="#002476"/><stop offset=".229" stop-color="#063D8D"/><stop offset=".526" stop-color="#05579C"/><stop offset=".99" stop-color="#00A6E6"/></linearGradient><linearGradient id="paint1_linear" x1="126.771" y1="0" x2="794.968" y2="367.637" gradientUnits="userSpaceOnUse"><stop stop-color="#002476"/><stop offset=".229" stop-color="#063D8D"/><stop offset=".526" stop-color="#05579C"/><stop offset=".99" stop-color="#00A6E6"/></linearGradient><linearGradient id="paint2_linear" x1="188.52" y1="100.361" x2="653.192" y2="356.021" gradientUnits="userSpaceOnUse"><stop stop-color="#002476"/><stop offset=".229" stop-color="#063D8D"/><stop offset=".526" stop-color="#05579C"/><stop offset=".99" stop-color="#00A6E6"/></linearGradient></defs></svg>