<?xml version="1.0" standalone="no"?>
<!DOCTYPE svg PUBLIC "-//W3C//DTD SVG 20010904//EN"
 "http://www.w3.org/TR/2001/REC-SVG-20010904/DTD/svg10.dtd">
<svg version="1.0" xmlns="http://www.w3.org/2000/svg"
 width="856.000000pt" height="856.000000pt" viewBox="0 0 856.000000 856.000000"
 preserveAspectRatio="xMidYMid meet">
<metadata>
Created by potrace 1.11, written by Peter Selinger 2001-2013
</metadata>
<g transform="translate(0.000000,856.000000) scale(0.100000,-0.100000)"
fill="#000000" stroke="none">
<path d="M3729 8555 c-2 -2 -31 -6 -64 -9 -175 -16 -248 -67 -281 -196 -2 -8
-10 -42 -18 -75 -16 -64 -58 -189 -82 -242 -8 -17 -14 -34 -14 -38 0 -13 -111
-228 -134 -260 -59 -83 -121 -257 -131 -365 -8 -93 -14 -134 -30 -192 -19 -75
-93 -230 -139 -293 -20 -27 -36 -56 -36 -62 0 -7 -4 -13 -8 -13 -8 0 -58 -112
-68 -150 -2 -8 -11 -40 -19 -70 -9 -30 -18 -84 -20 -120 -12 -173 -21 -223
-62 -340 -25 -71 -66 -155 -103 -210 -36 -54 -136 -281 -145 -331 -2 -10 -8
-26 -13 -36 -8 -17 -39 -123 -47 -161 -11 -55 -48 -193 -61 -227 -9 -22 -17
-47 -19 -55 -14 -67 -149 -360 -167 -360 -5 0 -7 -4 -3 -9 3 -5 1 -12 -4 -16
-16 -9 -76 -144 -85 -190 -3 -11 -12 -47 -20 -80 -9 -33 -19 -96 -21 -140 -5
-77 -11 -126 -22 -190 -14 -85 -79 -206 -151 -283 -61 -65 -121 -186 -137
-277 -1 -5 -3 -12 -4 -15 -2 -3 -4 -30 -6 -60 -13 -180 -16 -199 -42 -295 -10
-33 -17 -62 -17 -65 0 -5 -37 -78 -124 -246 -46 -89 -55 -110 -87 -209 -14
-44 -28 -87 -32 -95 -3 -8 -7 -19 -8 -25 -2 -5 -11 -39 -20 -75 -10 -36 -19
-74 -21 -85 -1 -11 -3 -20 -4 -20 -2 0 -7 -23 -15 -69 -7 -41 -12 -65 -20 -94
-2 -9 -9 -37 -16 -62 -6 -25 -14 -52 -17 -60 -3 -8 -7 -19 -7 -25 -2 -9 -5
-19 -23 -65 -3 -8 -6 -18 -7 -22 -2 -5 -3 -9 -5 -10 -1 -2 -3 -11 -5 -20 -6
-33 -93 -216 -122 -259 -57 -83 -97 -176 -129 -299 -20 -79 -23 -99 -30 -215
-4 -76 -14 -136 -35 -215 -2 -8 -12 -28 -21 -45 -10 -16 -22 -40 -28 -52 -5
-13 -28 -35 -51 -50 -92 -62 -133 -116 -159 -213 -7 -25 -15 -54 -18 -65 -3
-11 -7 -136 -9 -278 l-5 -259 569 5 c312 3 588 8 613 11 25 4 53 8 62 10 10 1
21 5 24 9 4 4 14 7 21 7 8 0 29 11 48 26 37 28 51 72 59 179 2 33 9 83 16 110
7 28 13 57 15 65 9 71 104 326 185 499 53 115 82 182 81 188 0 2 9 24 20 50
25 58 78 217 85 257 3 16 7 34 11 39 3 5 7 37 9 71 4 74 10 104 31 176 9 30
17 57 18 60 4 22 66 138 104 195 26 39 60 95 75 125 16 30 32 63 37 72 5 10
20 61 34 114 14 53 27 100 31 105 3 5 0 9 -6 9 -6 0 -9 4 -6 8 2 4 8 37 11 72
4 36 11 73 16 82 5 10 7 18 3 18 -3 0 -1 7 6 15 7 8 10 15 7 15 -12 0 85 211
107 233 20 20 81 119 78 125 -2 2 0 8 5 11 13 10 33 49 33 66 0 8 5 15 12 15
6 0 9 3 6 6 -3 3 2 29 13 59 10 30 21 80 24 112 5 55 14 126 19 148 10 45 50
175 63 205 3 8 7 17 7 20 2 7 26 68 49 120 10 25 53 115 94 200 42 85 79 164
84 175 78 196 116 340 121 460 1 33 5 71 9 85 4 14 13 45 20 70 25 89 69 180
135 276 76 111 140 263 150 353 11 109 16 134 45 228 17 54 34 103 38 108 3 6
6 12 7 15 1 3 5 20 9 38 4 17 11 32 16 32 5 0 9 7 9 16 0 14 21 65 56 138 8
16 14 35 14 43 0 7 5 13 10 13 6 0 10 7 10 14 0 8 23 57 51 108 28 51 52 99
53 106 1 7 8 18 14 24 7 7 12 18 12 25 0 7 3 13 8 13 4 0 16 16 27 36 27 50
79 94 106 89 27 -5 49 -25 99 -90 37 -48 125 -205 115 -205 -2 0 5 -25 15 -55
10 -30 17 -55 15 -55 -3 0 0 -11 5 -24 5 -14 12 -62 15 -108 11 -141 13 -164
29 -225 25 -95 83 -240 106 -263 16 -16 60 -88 60 -98 0 -7 4 -12 9 -12 5 0
11 -8 14 -17 3 -10 17 -45 31 -78 34 -82 65 -202 71 -277 15 -183 15 -185 35
-258 20 -77 61 -152 109 -200 25 -26 55 -60 67 -76 17 -25 67 -119 70 -134 0
-3 4 -12 7 -20 17 -40 35 -100 30 -100 -3 0 -1 -6 4 -12 8 -10 22 -63 24 -93
1 -2 7 -31 14 -63 8 -33 16 -71 19 -85 2 -15 7 -30 10 -35 3 -5 7 -21 10 -36
22 -119 246 -799 321 -971 18 -43 28 -68 31 -85 2 -8 7 -23 13 -35 5 -11 20
-49 32 -85 12 -36 27 -70 32 -77 5 -7 6 -17 2 -23 -3 -5 -1 -10 5 -10 6 0 9
-4 5 -9 -3 -5 -1 -12 5 -16 5 -3 10 -15 10 -26 0 -10 4 -27 9 -37 10 -18 23
-50 26 -67 3 -14 34 -107 42 -125 3 -8 7 -17 7 -20 4 -13 68 -220 81 -255 7
-22 16 -53 21 -70 9 -39 9 -39 34 -120 12 -38 23 -77 25 -85 25 -106 138 -349
184 -396 58 -59 104 -186 115 -319 5 -55 10 -77 35 -170 35 -127 117 -325 237
-573 l89 -184 630 5 c347 3 648 8 670 12 130 23 124 65 -30 229 -19 20 -73
120 -95 176 -24 60 -28 75 -36 135 -13 100 -23 150 -53 252 -19 64 -29 96 -57
168 -4 11 -8 22 -9 25 -12 36 -79 188 -126 285 -24 50 -43 92 -44 95 0 3 -20
54 -43 114 -49 124 -88 266 -97 346 -16 137 -21 163 -51 240 -26 66 -74 161
-85 170 -4 3 -23 31 -43 63 -44 69 -90 174 -110 251 -8 31 -17 60 -20 65 -3 5
-8 40 -11 77 -13 169 -20 217 -45 296 -31 95 -70 177 -122 254 -84 124 -145
279 -154 387 -2 29 -6 72 -9 97 -4 40 -8 57 -22 108 -10 39 -10 39 -29 87 -4
11 -8 22 -9 25 -12 33 -44 95 -76 145 -45 71 -104 196 -143 305 -15 41 -30 82
-33 90 -10 26 -12 32 -43 150 -17 63 -32 124 -34 135 -4 22 -67 214 -87 260
-6 17 -13 35 -15 42 -3 18 -92 192 -112 221 -66 94 -127 279 -137 412 -9 131
-16 178 -35 248 -27 99 -76 201 -140 297 -94 140 -141 260 -154 395 -3 30 -10
70 -15 89 -6 18 -10 36 -9 40 0 3 -1 8 -2 11 -1 3 -3 12 -5 21 -6 33 -107 326
-166 481 -63 167 -139 367 -154 403 -5 11 -9 22 -10 25 -1 3 -5 14 -10 25 -4
11 -29 74 -55 140 -26 66 -51 129 -55 140 -5 11 -9 22 -9 25 -8 39 -140 344
-159 367 -59 74 -118 102 -257 120 -41 6 -926 13 -931 8z"/>
</g>
</svg>
